<?xml version="1.0" encoding="UTF-8" standalone="no"?>
<!DOCTYPE svg PUBLIC "-//W3C//DTD SVG 1.1//EN" "http://www.w3.org/Graphics/SVG/1.1/DTD/svg11.dtd">
<!-- Created with Vectornator (http://vectornator.io/) -->
<svg height="100%" stroke-miterlimit="10" style="fill-rule:nonzero;clip-rule:evenodd;stroke-linecap:round;stroke-linejoin:round;" version="1.1" viewBox="0 0 800 800" width="100%" xml:space="preserve" xmlns="http://www.w3.org/2000/svg" xmlns:xlink="http://www.w3.org/1999/xlink">
<defs/>
<g id="Ebene-1">
<path d="M400 0C179.086 0 3.66155e-15 179.086 3.66155e-15 400C3.66155e-15 451.07 9.67951 499.847 27.125 544.75C35.1033 546.977 42.9116 550.785 50.0625 556.75C54.1442 535.239 73.0514 519 95.75 519C118.569 519 137.555 535.413 141.5 557.094C158.652 554.346 176.053 558.464 190.125 568.625C233.978 549.539 283.563 581.645 283.563 629.875C283.563 644.45 278.891 657.957 270.969 668.938C272.898 671.127 274.649 673.372 276.312 675.656C294.05 667.985 314.476 666.623 333.688 673.812C331.922 669.061 330.906 663.929 330.906 658.562C330.906 632.843 353.013 612.53 378.875 614.969C373.692 575.489 419.756 550.771 449.812 575.844C452.689 560.683 466.002 549.219 482 549.219C498.083 549.219 511.47 560.813 514.25 576.094C526.339 574.157 538.613 577.057 548.531 584.219C570.23 574.775 593.842 583.144 606.031 600.719C609.905 561.732 657.415 540.146 689.531 566.938C692.915 549.107 708.56 535.625 727.375 535.625C745.316 535.625 760.268 547.932 764.562 564.531C787.258 514.329 800 458.675 800 400C800 179.086 620.914 0 400 0ZM150.656 165.5L477.75 292.688L579.813 273.438C583.991 272.586 601.591 262.563 622.5 262.562C645.087 262.562 645.11 266.744 657.625 271.75L657.656 271.75C674.387 278.431 696.938 278.432 696.938 296.844C696.938 340.34 517.074 366.281 510.375 366.281L451 495.969C446.806 505.999 440.954 508.522 434.25 509.344L415 511.031L415 420.688L377.344 387.188C373.154 387.188 348.895 391.375 298.719 391.375C240.154 391.375 224.246 388.875 220.062 388.875L213.375 417.312C212.524 422.348 198.312 424.847 195.812 421.5L165.688 381.344C159.843 381.344 144.781 379.695 144.781 374.656C144.781 367.984 147.279 365.449 150.625 363.781L87.0625 304.375C82.8911 300.205 97.9411 291.833 111.313 298.5L173.219 327.781L169.031 279.25L183.25 276.781C188.27 275.935 199.169 283.462 202.5 286.781L246.031 333.656L321.312 319.406L286.156 283.469L121.375 179.719L135.563 168.844C135.563 168.844 138.95 165.5 150.656 165.5Z" fill="#f4f6f0" fill-rule="nonzero" opacity="1" stroke="none"/>
</g>
</svg>
