<?xml version="1.0" encoding="UTF-8" standalone="no"?>
<!DOCTYPE svg PUBLIC "-//W3C//DTD SVG 1.1//EN" "http://www.w3.org/Graphics/SVG/1.1/DTD/svg11.dtd">
<!-- Created with Vectornator (http://vectornator.io/) -->
<svg height="100%" stroke-miterlimit="10" style="fill-rule:nonzero;clip-rule:evenodd;stroke-linecap:round;stroke-linejoin:round;" version="1.1" viewBox="0 0 800 800" width="100%" xml:space="preserve" xmlns="http://www.w3.org/2000/svg" xmlns:vectornator="http://vectornator.io" xmlns:xlink="http://www.w3.org/1999/xlink">
<defs/>
<g id="Ebene-1" vectornator:layerName="Ebene 1">
<path d="M400 0C179.086 0 0 179.086 0 400C0 453.516 10.5882 504.532 29.6562 551.188C49.1809 531.378 76.2684 519.062 106.281 519.062C159.125 519.062 203.084 557.136 212.219 607.344C251.938 600.98 292.287 610.47 324.875 634C351.637 622.352 379.303 619.006 405.562 622.344C464.853 567.723 560.89 554.855 633.438 615.375C644.822 555.378 697.533 510.031 760.844 510.031C768.745 510.031 776.457 510.709 783.969 512.062C794.335 476.489 800 438.92 800 400C800 179.086 620.914 0 400 0ZM212.531 265.625L466.969 364.562L546.375 349.594C549.625 348.932 563.299 341.125 579.562 341.125C597.146 341.125 597.148 344.352 606.906 348.25C619.922 353.455 637.469 353.452 637.469 367.781C637.469 401.614 497.586 421.781 492.375 421.781L446.156 522.656C442.894 530.458 438.34 532.423 433.125 533.062L418.156 534.375L418.156 464.094L388.875 438.062C385.616 438.062 366.747 441.312 327.719 441.312C282.166 441.312 269.785 439.375 266.531 439.375L261.344 461.5C260.682 465.417 249.632 467.354 247.688 464.75L224.25 433.5C219.704 433.5 207.969 432.232 207.969 428.312C207.969 423.123 209.929 421.141 212.531 419.844L163.094 373.656C159.849 370.413 171.537 363.908 181.938 369.094L230.094 391.844L226.844 354.125L237.906 352.188C241.811 351.529 250.284 357.387 252.875 359.969L286.75 396.406L345.281 385.344L317.969 357.375L189.781 276.688L200.812 268.219C200.812 268.219 203.425 265.625 212.531 265.625Z" fill="currentColor" fill-rule="nonzero" opacity="1" stroke="none"/>
</g>
</svg>
