<?xml version="1.0" standalone="no"?>
<!DOCTYPE svg PUBLIC "-//W3C//DTD SVG 20010904//EN"
 "http://www.w3.org/TR/2001/REC-SVG-20010904/DTD/svg10.dtd">
<svg version="1.0" xmlns="http://www.w3.org/2000/svg"
 width="700.000000pt" height="700.000000pt" viewBox="0 0 700.000000 700.000000"
 preserveAspectRatio="xMidYMid meet">
<metadata>
Created by potrace 1.14, written by Peter Selinger 2001-2017
</metadata>
<g transform="translate(0.000000,700.000000) scale(0.100000,-0.100000)"
fill="#000000" stroke="none">
<path d="M3278 6995 c-1 -1 -42 -5 -89 -9 -47 -4 -95 -8 -106 -10 -11 -3 -44
-7 -74 -11 -102 -12 -217 -34 -344 -67 -44 -11 -89 -22 -101 -24 -91 -17 -415
-140 -579 -220 -180 -87 -448 -247 -555 -331 -8 -6 -51 -40 -95 -74 -353 -275
-673 -651 -897 -1054 -49 -87 -148 -289 -148 -301 0 -2 -9 -23 -20 -47 -57
-123 -157 -435 -186 -582 -2 -11 -10 -54 -19 -95 -22 -115 -30 -160 -41 -255
-26 -230 -26 -663 1 -826 2 -13 6 -46 10 -74 9 -76 16 -116 25 -160 5 -22 11
-53 14 -70 9 -50 13 -66 40 -170 25 -100 99 -326 130 -399 l16 -39 45 42 c108
100 274 184 430 219 86 19 297 20 380 3 347 -75 622 -329 719 -663 l24 -83 54
2 c137 4 237 4 278 -1 112 -13 140 -18 215 -38 145 -38 328 -122 414 -189 16
-13 28 -16 40 -10 21 11 119 44 191 64 55 15 84 21 175 33 51 8 264 8 299 1
13 -2 47 19 97 59 230 186 514 305 804 340 274 32 587 -23 820 -146 119 -63
145 -79 221 -136 49 -35 76 -50 79 -42 2 7 9 33 15 58 80 322 315 599 635 749
65 31 228 78 302 87 71 9 240 10 310 2 l53 -6 15 51 c13 45 41 160 50 207 22
111 37 202 61 385 8 61 11 533 4 610 -16 169 -22 220 -25 225 -2 3 -6 30 -10
60 -4 30 -22 123 -40 205 -53 232 -102 385 -197 610 -422 993 -1304 1752
-2346 2014 -121 31 -244 57 -312 66 -19 3 -46 7 -60 10 -13 2 -52 7 -86 11
-33 3 -74 8 -90 10 -32 5 -540 14 -546 9z m-1265 -2379 c78 -30 205 -79 282
-109 360 -141 693 -271 726 -283 55 -20 502 -193 524 -203 11 -5 49 -21 85
-34 128 -49 306 -119 379 -148 78 -31 74 -31 211 -4 14 3 48 9 75 15 28 5 59
11 70 13 11 3 36 7 55 10 97 17 92 16 170 32 14 2 36 7 50 9 96 18 143 30 237
62 92 31 118 36 202 36 89 1 103 -2 177 -35 44 -19 109 -43 145 -53 112 -30
163 -64 174 -115 33 -151 -277 -310 -830 -425 -54 -11 -173 -34 -200 -39 -16
-2 -41 -7 -55 -9 -14 -3 -42 -8 -62 -11 -91 -13 -113 -17 -120 -23 -5 -6 -103
-215 -220 -472 -235 -516 -215 -487 -333 -496 -39 -3 -76 -7 -82 -9 -10 -4
-13 62 -13 304 l0 309 -77 69 c-100 88 -94 82 -140 124 -41 38 -41 38 -148 24
-67 -10 -802 -14 -888 -6 -80 8 -76 12 -102 -107 -11 -45 -26 -89 -35 -97 -18
-16 -65 -26 -86 -18 -9 3 -62 67 -119 143 l-103 137 -51 6 c-28 3 -60 11 -71
17 -25 14 -26 54 -1 79 19 19 17 21 -87 117 -157 147 -262 245 -300 282 -39
37 -34 53 23 72 55 18 69 14 340 -114 66 -32 137 -66 158 -77 l39 -20 -6 73
c-11 150 -18 223 -21 235 -6 20 34 36 91 37 75 1 84 -7 309 -250 132 -142 125
-135 144 -130 9 3 32 8 51 11 19 3 80 15 135 25 55 11 109 21 120 23 11 2 55
10 98 17 42 8 77 18 77 22 0 5 -51 60 -112 124 -86 88 -137 130 -218 181 -58
36 -145 92 -195 123 -49 32 -238 151 -420 265 -381 239 -395 248 -395 257 0
13 103 81 133 88 44 9 49 8 210 -54z"/>
</g>
</svg>
